STARTFONT 2.1
FONT oldera
SIZE 14 75 75
FONTBOUNDINGBOX 15 15 0 -6

STARTPROPERTIES 10
COPYRIGHT "Public domain font.  Share and enjoy."
POINT_SIZE 140
WEIGHT 10
RESOLUTION_X 75
RESOLUTION_Y 75
X_HEIGHT 9
QUAD_WIDTH 15
DEFAULT_CHAR 0
FONT_DESCENT 6
FONT_ASCENT 9
ENDPROPERTIES

CHARS 64

STARTCHAR C040
ENCODING 32
SWIDTH 1071 0
DWIDTH 15 0
BBX 15 15 0 -6
BITMAP
0000
0000
0000
0000
0000
0000
0000
0000
0000
0000
0000
0000
0000
0000
0000
ENDCHAR

STARTCHAR !
ENCODING 33
SWIDTH 1071 0
DWIDTH 15 0
BBX 15 15 0 -6
BITMAP
0000
0000
0000
0000
0000
0000
0000
0000
0000
0000
0000
0000
0000
0000
0000
ENDCHAR

STARTCHAR A
ENCODING 65
SWIDTH 1071 0
DWIDTH 15 0
BBX 15 15 0 -6
BITMAP
3000
7000
F000
B000
3000
3000
3000
3000
1000
0000
0000
0000
0000
0000
0000
ENDCHAR

STARTCHAR B
ENCODING 66
SWIDTH 1071 0
DWIDTH 15 0
BBX 15 15 0 -6
BITMAP
0000
0000
0000
0000
C002
C006
FFFE
7FFC
0000
0000
0300
0300
0000
0000
0000
ENDCHAR

STARTCHAR C
ENCODING 67
SWIDTH 1071 0
DWIDTH 15 0
BBX 15 15 0 -6
BITMAP
0000
0000
0000
0000
C002
C006
FFFE
7FFC
0000
0660
0660
0000
0180
0180
0000
ENDCHAR

STARTCHAR D
ENCODING 68
SWIDTH 1071 0
DWIDTH 15 0
BBX 15 15 0 -6
BITMAP
0000
0000
0CC0
0CC0
C002
C006
FFFE
7FFC
0000
0000
0000
0000
0000
0000
0000
ENDCHAR

STARTCHAR E
ENCODING 69
SWIDTH 1071 0
DWIDTH 15 0
BBX 15 15 0 -6
BITMAP
0200
0200
0380
0280
C782
C006
FFFE
7FFC
0000
0000
0000
0000
0000
0000
0000
ENDCHAR

STARTCHAR F
ENCODING 70
SWIDTH 1071 0
DWIDTH 15 0
BBX 15 15 0 -6
BITMAP
0000
0300
0300
0CC0
CCC2
C006
FFFE
7FFC
0000
0000
0000
0000
0000
0000
0000
ENDCHAR

STARTCHAR G
ENCODING 71
SWIDTH 1071 0
DWIDTH 15 0
BBX 15 15 0 -6
BITMAP
0000
0000
0000
0000
0000
0000
7F00
FF00
0600
1800
3000
6600
6600
6000
3000
ENDCHAR

STARTCHAR H
ENCODING 72
SWIDTH 1071 0
DWIDTH 15 0
BBX 15 15 0 -6
BITMAP
0000
0000
0000
0000
0000
0000
7F00
FF00
0600
1800
3000
6660
6660
6180
3180
ENDCHAR

STARTCHAR I
ENCODING 73
SWIDTH 1071 0
DWIDTH 15 0
BBX 15 15 0 -6
BITMAP
0000
0000
0000
0000
0000
0000
7F00
FF00
0600
1800
3000
6000
6000
6000
3000
ENDCHAR

STARTCHAR J
ENCODING 74
SWIDTH 1071 0
DWIDTH 15 0
BBX 15 15 0 -6
BITMAP
0000
0000
0000
0C00
0C00
0000
7F00
FF00
0600
1800
3000
6000
6000
6000
3000
ENDCHAR

STARTCHAR K
ENCODING 75
SWIDTH 1071 0
DWIDTH 15 0
BBX 15 15 0 -6
BITMAP
0000
0000
0000
0000
7000
1C00
0600
0600
3800
E000
0000
0000
0000
0000
0000
ENDCHAR

STARTCHAR L
ENCODING 76
SWIDTH 1071 0
DWIDTH 15 0
BBX 15 15 0 -6
BITMAP
0000
E000
E000
0000
7000
1C00
0600
0600
3800
E000
0000
0000
0000
0000
0000
ENDCHAR

STARTCHAR M
ENCODING 77
SWIDTH 1071 0
DWIDTH 15 0
BBX 15 15 0 -6
BITMAP
0000
0000
0000
0000
0000
0000
0100
0300
0300
0600
7C00
F800
0000
0000
0000
ENDCHAR

STARTCHAR N
ENCODING 78
SWIDTH 1071 0
DWIDTH 15 0
BBX 15 15 0 -6
BITMAP
0000
0000
0000
0000
3800
3800
0100
0300
0300
0600
7C00
F800
0000
0000
0000
ENDCHAR

STARTCHAR O
ENCODING 79
SWIDTH 1071 0
DWIDTH 15 0
BBX 15 15 0 -6
BITMAP
0000
0000
0000
0000
0000
01B6
01B6
81FC
C0C0
C0C0
C180
7F00
3E00
0000
0000
ENDCHAR

STARTCHAR P
ENCODING 80
SWIDTH 1071 0
DWIDTH 15 0
BBX 15 15 0 -6
BITMAP
0060
0060
0198
0198
0000
01B6
01B6
81FC
C0C0
C0C0
C180
7F00
3E00
0000
0000
ENDCHAR

STARTCHAR Q
ENCODING 81
SWIDTH 1071 0
DWIDTH 15 0
BBX 15 15 0 -6
BITMAP
0000
0000
0000
0078
00EC
00C6
03FE
81FC
C0C0
C0C0
C180
7F00
3E00
0000
0000
ENDCHAR

STARTCHAR R
ENCODING 82
SWIDTH 1071 0
DWIDTH 15 0
BBX 15 15 0 -6
BITMAP
0000
0E00
0E78
00EC
00C6
03FE
81FC
C0C0
C0C0
C180
7F00
3E00
0000
0000
0000
ENDCHAR

STARTCHAR S
ENCODING 83
SWIDTH 1071 0
DWIDTH 15 0
BBX 15 15 0 -6
BITMAP
0C00
0600
0600
07C0
07E0
0C30
3FF0
FFE0
0000
0000
0000
0000
0000
0000
0000
ENDCHAR

STARTCHAR T
ENCODING 84
SWIDTH 1071 0
DWIDTH 15 0
BBX 15 15 0 -6
BITMAP
0000
0000
0780
0F80
0C00
0C00
1F80
3F80
6000
C000
C000
C000
FF00
7E00
0000
ENDCHAR

STARTCHAR U
ENCODING 85
SWIDTH 1071 0
DWIDTH 15 0
BBX 15 15 0 -6
BITMAP
0000
E000
E3C0
07C0
0C00
0C00
0FC0
1FC0
3000
C000
C000
C000
7F80
3F00
0000
ENDCHAR

STARTCHAR V
ENCODING 86
SWIDTH 1071 0
DWIDTH 15 0
BBX 15 15 0 -6
BITMAP
00E0
00E0
0000
00F0
80F0
C030
FFF0
7FE0
0000
0000
0000
0000
0000
0000
0000
ENDCHAR

STARTCHAR W
ENCODING 87
SWIDTH 1071 0
DWIDTH 15 0
BBX 15 15 0 -6
BITMAP
0000
0000
0D80
0D80
0000
0780
07C0
07C0
80C0
C060
C060
C060
60C0
3FC0
1F80
ENDCHAR

STARTCHAR X
ENCODING 88
SWIDTH 1071 0
DWIDTH 15 0
BBX 15 15 0 -6
BITMAP
0000
07F0
07F0
0300
01C0
80E0
FFE0
7FC0
0000
0000
0000
0000
0000
0000
0000
ENDCHAR

STARTCHAR Y
ENCODING 89
SWIDTH 1071 0
DWIDTH 15 0
BBX 15 15 0 -6
BITMAP
0000
0000
0100
0180
0180
0180
0180
0180
4180
C180
C180
C180
7F00
3E00
0000
ENDCHAR

STARTCHAR Z
ENCODING 90
SWIDTH 1071 0
DWIDTH 15 0
BBX 15 15 0 -6
BITMAP
0000
0000
0000
0000
1C00
0E00
1E00
7000
C000
C000
C000
C000
C000
C000
C000
ENDCHAR

STARTCHAR [
ENCODING 91
SWIDTH 1071 0
DWIDTH 15 0
BBX 15 15 0 -6
BITMAP
0000
0000
0000
0000
1C00
1C00
8180
C180
C180
C180
7300
3C00
0000
0000
0000
ENDCHAR

STARTCHAR \
ENCODING 92
SWIDTH 1071 0
DWIDTH 15 0
BBX 15 15 0 -6
BITMAP
0000
0000
0000
0E00
1E00
1E00
0600
0600
7C00
F800
0000
0000
0000
0000
0000
ENDCHAR

STARTCHAR ]
ENCODING 93
SWIDTH 1071 0
DWIDTH 15 0
BBX 15 15 0 -6
BITMAP
0000
0000
0000
0000
0000
0F00
7F80
FFC0
30C0
30C0
30C0
1F80
0F00
0600
0000
ENDCHAR

STARTCHAR ^
ENCODING 94
SWIDTH 1071 0
DWIDTH 15 0
BBX 15 15 0 -6
BITMAP
0000
0000
0000
0000
0000
0000
00FC
01FC
2180
6060
C060
70C0
3F80
1F00
0000
ENDCHAR

STARTCHAR _
ENCODING 95
SWIDTH 1071 0
DWIDTH 15 0
BBX 15 15 0 -6
BITMAP
0000
0000
0000
0000
0000
0000
0FF8
3FF0
C000
7FE0
3FC0
0000
0000
0000
0000
ENDCHAR

STARTCHAR a
ENCODING 97
SWIDTH 1071 0
DWIDTH 15 0
BBX 15 15 0 -6
BITMAP
0706
0406
0306
0406
0006
000E
FFFE
FFFC
0000
0000
0000
0000
0000
0000
0000
ENDCHAR

STARTCHAR b
ENCODING 98
SWIDTH 1071 0
DWIDTH 15 0
BBX 15 15 0 -6
BITMAP
0000
0000
0000
0000
000C
0006
FFFE
FFFC
0000
01C0
01C0
0000
0000
0000
0000
ENDCHAR

STARTCHAR c
ENCODING 99
SWIDTH 1071 0
DWIDTH 15 0
BBX 15 15 0 -6
BITMAP
0000
0000
0000
0000
000C
0006
FFFE
FFFC
0000
0E38
0E38
0000
01C0
01C0
0000
ENDCHAR

STARTCHAR d
ENCODING 100
SWIDTH 1071 0
DWIDTH 15 0
BBX 15 15 0 -6
BITMAP
0000
0000
1CE0
1CE0
000C
0006
FFFE
FFFC
0000
0000
0000
0000
0000
0000
0000
ENDCHAR

STARTCHAR e
ENCODING 101
SWIDTH 1071 0
DWIDTH 15 0
BBX 15 15 0 -6
BITMAP
0200
0200
0380
0280
078C
0006
FFFE
FFFC
0000
0000
0000
0000
0000
0000
0000
ENDCHAR

STARTCHAR f
ENCODING 102
SWIDTH 1071 0
DWIDTH 15 0
BBX 15 15 0 -6
BITMAP
0000
0700
0700
38E0
38EC
0006
FFFE
FFFC
0000
0000
0000
0000
0000
0000
0000
ENDCHAR

STARTCHAR g
ENCODING 103
SWIDTH 1071 0
DWIDTH 15 0
BBX 15 15 0 -6
BITMAP
0000
0000
0180
03E0
0638
000E
FFFE
FFFC
0000
0700
0700
0000
0000
0000
0000
ENDCHAR

STARTCHAR h
ENCODING 104
SWIDTH 1071 0
DWIDTH 15 0
BBX 15 15 0 -6
BITMAP
0000
0000
0180
03E0
0638
000E
FFFE
FFFC
0000
0E38
0E38
0000
01C0
01C0
0000
ENDCHAR

STARTCHAR i
ENCODING 105
SWIDTH 1071 0
DWIDTH 15 0
BBX 15 15 0 -6
BITMAP
0000
0000
0180
03E0
0638
000E
FFFE
FFFC
0000
0000
0000
0000
0000
0000
0000
ENDCHAR

STARTCHAR j
ENCODING 106
SWIDTH 1071 0
DWIDTH 15 0
BBX 15 15 0 -6
BITMAP
3800
3800
0180
03E0
0638
000E
FFFE
FFFC
0000
0000
0000
0000
0000
0000
0000
ENDCHAR

STARTCHAR k
ENCODING 107
SWIDTH 1071 0
DWIDTH 15 0
BBX 15 15 0 -6
BITMAP
2000
3800
2800
7800
0000
1C00
0600
0600
3800
E000
0000
0000
0000
0000
0000
ENDCHAR

STARTCHAR l
ENCODING 108
SWIDTH 1071 0
DWIDTH 15 0
BBX 15 15 0 -6
BITMAP
0000
0000
0000
0000
0000
0F00
1800
0F80
3000
C000
0000
0000
0000
0000
0000
ENDCHAR

STARTCHAR m
ENCODING 109
SWIDTH 1071 0
DWIDTH 15 0
BBX 15 15 0 -6
BITMAP
0400
0400
0700
0500
0F00
0000
0100
0300
0300
0600
7C00
F800
0000
0000
0000
ENDCHAR

STARTCHAR n
ENCODING 110
SWIDTH 1071 0
DWIDTH 15 0
BBX 15 15 0 -6
BITMAP
1C00
1C00
0000
E380
E380
0000
0080
0180
0180
0300
7E00
FC00
0000
0000
0000
ENDCHAR

STARTCHAR o
ENCODING 111
SWIDTH 1071 0
DWIDTH 15 0
BBX 15 15 0 -6
BITMAP
0000
0000
0000
0000
01B6
19B6
FFFE
E7FC
0000
0000
0000
0000
0000
0000
0000
ENDCHAR

STARTCHAR p
ENCODING 112
SWIDTH 1071 0
DWIDTH 15 0
BBX 15 15 0 -6
BITMAP
0300
0300
0CC0
0CC0
01B6
19B6
FFFE
E7FC
0000
0000
0000
0000
0000
0000
0000
ENDCHAR

STARTCHAR q
ENCODING 113
SWIDTH 1071 0
DWIDTH 15 0
BBX 15 15 0 -6
BITMAP
0000
0000
0000
0078
00EC
18C6
FFFE
E7FC
0000
0000
0000
0000
0000
0000
0000
ENDCHAR

STARTCHAR r
ENCODING 114
SWIDTH 1071 0
DWIDTH 15 0
BBX 15 15 0 -6
BITMAP
0000
0000
0E00
0E78
00EC
18C6
FFFE
E7FC
0000
0000
0000
0000
0000
0000
0000
ENDCHAR

STARTCHAR s
ENCODING 115
SWIDTH 1071 0
DWIDTH 15 0
BBX 15 15 0 -6
BITMAP
0C70
0670
0600
07C0
07E0
0C30
3FF0
FFE0
0000
0000
0000
0000
0000
0000
0000
ENDCHAR

STARTCHAR t
ENCODING 116
SWIDTH 1071 0
DWIDTH 15 0
BBX 15 15 0 -6
BITMAP
0000
0078
00FC
0184
0180
00C0
FFFE
FFFC
0000
0000
0000
0000
0000
0000
0000
ENDCHAR

STARTCHAR u
ENCODING 117
SWIDTH 1071 0
DWIDTH 15 0
BBX 15 15 0 -6
BITMAP
3800
3878
00FC
0184
0180
00C0
FFFE
FFFC
0000
0000
0000
0000
0000
0000
0000
ENDCHAR

STARTCHAR v
ENCODING 118
SWIDTH 1071 0
DWIDTH 15 0
BBX 15 15 0 -6
BITMAP
0700
0700
0018
003C
003C
0006
FFFE
FFFC
0000
0000
0000
0000
0000
0000
0000
ENDCHAR

STARTCHAR w
ENCODING 119
SWIDTH 1071 0
DWIDTH 15 0
BBX 15 15 0 -6
BITMAP
7380
7380
0018
003C
003C
0006
FFFE
FFFC
0000
0000
0000
0000
0000
0000
0000
ENDCHAR

STARTCHAR x
ENCODING 120
SWIDTH 1071 0
DWIDTH 15 0
BBX 15 15 0 -6
BITMAP
07F8
07F8
0000
07F8
00C0
0030
FFF8
7FF0
0000
0000
0000
0000
0000
0000
0000
ENDCHAR

STARTCHAR y
ENCODING 121
SWIDTH 1071 0
DWIDTH 15 0
BBX 15 15 0 -6
BITMAP
0006
0006
0006
0006
0006
000E
FFFE
FFFC
0000
0000
0000
0000
0000
0000
0000
ENDCHAR

STARTCHAR z
ENCODING 122
SWIDTH 1071 0
DWIDTH 15 0
BBX 15 15 0 -6
BITMAP
0000
0000
0000
0000
0038
007C
FFFE
FFFC
0038
0000
0000
0000
0000
0000
0000
ENDCHAR

STARTCHAR {
ENCODING 123
SWIDTH 1071 0
DWIDTH 15 0
BBX 15 15 0 -6
BITMAP
0380
0386
0006
0006
0006
0006
FFFE
FFFC
0000
0000
0000
0000
0000
0000
0000
ENDCHAR

STARTCHAR |
ENCODING 124
SWIDTH 1071 0
DWIDTH 15 0
BBX 15 15 0 -6
BITMAP
0000
0000
0000
0000
0000
0000
8180
C180
C180
C180
7300
3C00
0000
0000
0000
ENDCHAR

STARTCHAR }
ENCODING 125
SWIDTH 1071 0
DWIDTH 15 0
BBX 15 15 0 -6
BITMAP
0000
0000
0000
0000
07E0
0E30
FFFE
FFFC
0730
03E0
0000
0000
0000
0000
0000
ENDCHAR

STARTCHAR ~
ENCODING 126
SWIDTH 1071 0
DWIDTH 15 0
BBX 15 15 0 -6
BITMAP
0000
0000
0000
0000
000C
0006
FFFE
FFFC
0000
1CE0
1CE0
0000
0000
0000
0000
ENDCHAR

STARTCHAR C177
ENCODING 127
SWIDTH 1071 0
DWIDTH 15 0
BBX 15 15 0 -6
BITMAP
0000
0000
0000
0000
0000
0000
3FF8
7FF8
C000
C000
0000
0000
0000
0000
0000
ENDCHAR
ENDFONT
